<svg
	height="512pt"
	viewBox="0 0 512 511"
	width="512pt"
	xmlns="http://www.w3.org/2000/svg"
	class="color"
>
<style>
	.color { fill: #FFFFFF; }
</style>
	<path d="m512 50.316406-134.5-49.816406-134.5 49.816406v170.675782l115 42.59375v55.214843l-49 19.054688v42.917969l89-34.613282v-82.945312l114-42.222656zm-77.585938 13.917969-56.914062 21.082031-56.914062-21.082031 56.914062-21.078125zm-151.414062 128.917969v-100.183594l75 27.777344v100.183594zm115 27.40625v-100.179688l74-27.410156v100.183594zm-243-26.3125 48-18.339844v-42.820312l-88 33.625v82.417968l-115 42.59375v170.679688l134.5 49.8125 134.5-49.816406v-170.675782l-114-42.222656zm-20.5 132.476562-56.914062-21.078125 56.914062-21.082031 56.914062 21.082031zm-94.5 7.65625 75 27.777344v100.183594l-75-27.777344zm115 127.589844v-100.183594l74-27.40625v100.183594zm0 0"/>
</svg>