<svg
	version="1.0"
	xmlns="http://www.w3.org/2000/svg"
	width="700.000000pt"
	height="700.000000pt"
	viewBox="0 0 700.000000 700.000000"
	preserveAspectRatio="xMidYMid meet"
>
<g
	transform="translate(0.000000,700.000000) scale(0.100000,-0.100000)"
	fill="#28a745"
	stroke="none"
>
<path d="M3584 6943 c-16 -25 -57 -90 -91 -142 -35 -53 -63 -103 -63 -111 0
-9 -8 -26 -17 -40 -13 -18 -17 -47 -17 -120 -1 -109 -4 -100 119 -355 112
-232 121 -252 135 -313 16 -71 8 -109 -43 -194 -46 -78 -120 -195 -157 -253
-22 -33 -43 -67 -47 -75 -4 -8 -22 -36 -40 -62 -18 -26 -33 -51 -33 -54 0 -4
-15 -27 -33 -53 -18 -25 -36 -53 -40 -61 -4 -8 -25 -42 -47 -75 -21 -33 -53
-82 -70 -110 -17 -27 -57 -90 -90 -140 -33 -49 -73 -112 -90 -140 -17 -27 -49
-77 -70 -110 -21 -33 -53 -82 -70 -110 -17 -27 -49 -77 -70 -110 -22 -33 -44
-70 -50 -82 -20 -47 -86 -98 -156 -120 -121 -38 -271 -75 -359 -88 -99 -15
-364 -75 -405 -93 -154 -66 -221 -109 -348 -227 -76 -70 -218 -247 -245 -305
-4 -8 -16 -28 -27 -45 -45 -69 -70 -127 -62 -142 9 -14 28 -28 87 -58 17 -9
48 -27 70 -40 22 -14 49 -30 60 -35 11 -6 34 -19 50 -30 17 -11 41 -25 55 -32
14 -7 47 -28 75 -45 27 -18 53 -33 56 -33 4 0 31 -16 60 -35 30 -19 58 -35 63
-35 5 0 17 -6 25 -14 9 -8 39 -27 68 -42 28 -16 130 -75 227 -132 147 -87 176
-107 176 -127 0 -12 -7 -28 -15 -35 -8 -7 -15 -17 -15 -22 0 -5 -24 -50 -54
-101 -29 -51 -65 -112 -78 -137 -14 -25 -35 -61 -46 -80 -12 -19 -26 -44 -31
-55 -5 -11 -30 -56 -56 -99 -26 -44 -51 -89 -56 -100 -5 -12 -20 -39 -34 -61
-14 -22 -30 -49 -35 -60 -6 -11 -14 -27 -19 -35 -6 -8 -35 -60 -66 -115 -31
-55 -60 -107 -65 -115 -5 -8 -16 -28 -25 -45 -8 -16 -19 -37 -25 -45 -5 -8
-41 -71 -80 -140 -39 -69 -75 -132 -80 -140 -5 -8 -16 -28 -25 -45 -8 -16 -19
-37 -25 -45 -5 -8 -32 -55 -60 -103 -51 -90 -58 -116 -80 -282 -6 -44 -17
-120 -25 -170 -8 -49 -19 -128 -25 -175 -6 -47 -14 -107 -19 -135 -5 -27 -11
-77 -12 -110 -6 -93 -20 -99 286 125 39 28 114 83 167 123 54 40 123 90 154
112 73 51 111 89 129 129 8 17 19 38 25 46 5 8 57 98 115 200 58 102 110 192
115 200 5 8 17 29 25 45 9 17 21 39 28 50 6 11 30 52 51 90 71 126 79 140 97
170 10 17 30 53 44 80 15 28 33 57 41 66 8 8 14 19 14 23 0 5 24 49 53 99 30
51 57 99 61 107 3 8 16 32 29 52 12 21 34 59 49 85 80 145 168 289 180 297 11
6 42 -7 109 -46 52 -30 101 -58 109 -61 8 -4 29 -16 45 -27 17 -11 44 -27 60
-35 17 -9 45 -24 63 -35 17 -11 47 -29 65 -40 17 -11 46 -26 62 -35 17 -8 44
-24 60 -35 17 -11 41 -24 54 -30 13 -6 44 -24 68 -40 24 -17 46 -30 49 -30 3
0 74 -41 158 -90 85 -50 161 -90 169 -90 20 0 110 121 138 185 5 11 13 27 19
35 14 21 74 156 93 210 49 133 60 203 61 350 0 127 -3 154 -24 215 -13 39 -30
81 -37 95 -7 14 -13 33 -13 42 0 9 -6 29 -14 45 -14 29 -41 105 -56 158 -4 17
-13 44 -18 60 -10 30 -37 123 -66 226 -9 31 -16 93 -16 138 0 77 2 86 42 159
22 42 57 106 76 142 55 102 92 170 127 235 18 33 49 92 70 130 20 39 47 88 60
110 12 22 38 69 57 105 19 36 45 82 57 103 12 22 43 78 68 125 26 48 57 105
69 127 13 22 37 67 54 100 17 33 35 67 40 75 41 68 120 210 120 214 0 9 59 93
72 103 31 24 122 44 243 53 72 6 141 12 155 15 14 3 66 9 117 14 84 9 150 25
228 56 122 49 175 100 240 229 24 50 57 112 72 139 16 29 23 51 17 56 -9 9
-714 420 -744 434 -8 4 -28 16 -45 27 -16 11 -43 27 -60 35 -16 9 -43 25 -60
35 -16 11 -43 27 -60 35 -16 8 -37 20 -45 25 -31 20 -806 467 -820 473 -8 4
-28 16 -45 27 -16 11 -43 27 -60 35 -28 15 -48 26 -127 75 -18 11 -44 24 -57
30 -13 6 -43 24 -67 39 -23 16 -52 32 -63 36 -12 3 -21 11 -21 16 0 21 -18 6
-46 -38z"></path>
</g>
</svg>